<svg class="svg-icon" style="width: 1em; height: 1em;vertical-align: middle;fill: currentColor;overflow: hidden;" viewBox="0 0 1024 1024" version="1.1" xmlns="http://www.w3.org/2000/svg"><path d="M754.51 404.31H375.66v-127.7c0-74.77 60.61-135.38 135.38-135.38 74.76 0 135.37 60.61 135.37 135.38 0 25.63 20.78 46.41 46.41 46.41 25.63 0 46.41-20.78 46.41-46.41C734.21 154.75 633.96 58.56 512 58.56s-222.2 96.19-227.23 218.05v127.7H269.5c-58.54 0-106 47.46-106 106v349.13c0 58.54 47.46 106 106 106h485.02c58.54 0 106-47.46 106-106V510.31c-0.01-58.54-47.47-106-106.01-106zM566.6 688.32c-8.65 6.53-11.3 12.72-11.04 22.87 0.62 25.78 0.44 51.66 0.18 77.44-0.44 29.76-17.31 47.68-43.97 47.24-25.7-0.35-41.77-18.01-42.21-46.8-0.26-15.1-0.44-30.11 0-45.21 0.8-26.23-0.09-48.39-23.75-69.58-25.52-22.95-25.96-57.83-10.95-89.88 15.54-33.03 42.91-48.39 72.4-50.51 42.12 0.44 75.76 25.34 87.33 59.96 11.48 34.51 1.07 72.48-27.99 94.47z"  /></svg>